<svg xmlns="http://www.w3.org/2000/svg" viewBox="0 0 266.75 71.38"><g id="Capa_2" data-name="Capa 2"><g id="Capa_1-2" data-name="Capa 1"><path d="M198.47,34.76l2.68.54q21.45.36,34.43-12.26l21.7,1.48a38.65,38.65,0,0,0,6.86-11.62l-31.51-.49q-5.1,18.72-34.16,22.35" style="fill:#afca0b"/><path d="M198.47,34.76l2.68.54q21.45.36,34.43-12.26l21.7,1.48a38.65,38.65,0,0,0,6.86-11.62l-31.51-.49Q227.53,31.13,198.47,34.76Z" style="fill:none;stroke:#fff;stroke-miterlimit:10;stroke-width:0.46432501077652px"/><path d="M204.7,31.89l2.23-.31q21.16-6.41,24.29-22.51L247,8.29a36.81,36.81,0,0,0,2.89-8l-33,3q-.66,20.06-12.17,28.6" style="fill:#006b9e"/><path d="M204.7,31.89l2.23-.31q21.16-6.41,24.29-22.51L247,8.29a36.81,36.81,0,0,0,2.89-8l-33,3Q216.21,23.35,204.7,31.89Z" style="fill:none;stroke:#fff;stroke-miterlimit:10;stroke-width:0.46432501077652px"/><path d="M194.48,35.27q39.83,23.7,71.74-5.14l-28.46-3.8q-16.42,13.91-43.28,8.94" style="fill:#f9b000"/><path d="M194.48,35.27q39.83,23.7,71.74-5.14l-28.46-3.8Q221.34,40.24,194.48,35.27Z" style="fill:none;stroke:#fff;stroke-miterlimit:10;stroke-width:0.46432501077652px"/><path d="M185.63,34.21h8.86v1.34c0,1.48-1.06,2.46-3.37,2.46h-5.45V49.86c0,3.4,1.45,4.83,4.24,4.83A8.88,8.88,0,0,0,194,54h.24v1.43c0,2-1.68,3.08-4.67,3.08-5.73,0-8.24-2.77-8.24-8.27V34.71A6.27,6.27,0,0,1,182.4,31a4.77,4.77,0,0,1,2.7-1.7h.53ZM172.47,58.08c-1.78,0-2.75-.85-2.75-2.63v-11c0-5-2-6.88-6.55-6.88-3.85,0-6.07,2-6.07,6.88V58.08h-1.64a2.49,2.49,0,0,1-2.7-2.77v-11c0-6.7,4.34-10.64,10.94-10.64s10.36,3.44,10.36,10.59V58.08ZM141.82,49.9c0,3.44-1.59,4.88-5.49,4.88-3.33,0-5.54-1.66-5.54-3.76,0-2.64,2.36-4.11,7.51-4.11h3.52Zm4.34.32V42.71c0-5.81-3.47-9-10-9-5.79,0-8.87,2.86-8.87,5.05v2h.24c1.49-1.92,4.34-3.26,8.19-3.26,4.19,0,6.07,1.43,6.07,4.91v1.12H138.3c-7.71,0-12,2.82-12,8,0,4.24,4.57,7.06,9.83,7.06,7.22,0,10-3.49,10-8.31M121,50.84c0-3.31-2.5-5.5-7.61-6.53-5.35-1.07-6.31-1.74-6.31-3.35,0-2,1.73-3.39,6.12-3.39,3,0,5.83,1.2,6.94,2.45h.24V38.24c0-2.91-3.71-4.52-7.52-4.52-6.41,0-10.22,3.62-10.22,7.51,0,3.58,2.27,5.1,7.09,6,5.88,1.16,6.79,2,6.79,4,0,2.37-1.68,3.49-5.49,3.49a11.14,11.14,0,0,1-7.66-2.68h-.24v1.74c0,2.86,3.47,4.74,7.8,4.74,5.88,0,10.07-2.68,10.07-7.69m-21.73,5V54.55H97.39c-2.41,0-4-.94-4-3.93V37.34a3,3,0,0,0-3-3.17H89v17c0,4.78,2.65,7.11,7.71,7.11a2.31,2.31,0,0,0,2.55-2.42M85.63,31V28.8c0-1.25-1.59-2.9-4.67-2.9a8.23,8.23,0,0,0-8.53,8.27v21c0,1.74.77,2.9,2.7,2.9h1.64V41.19h4.82c1.87,0,2.89-1,2.89-2.15V37.57H76.81v-3c0-3.45,1.35-4.88,4.73-4.88A5.62,5.62,0,0,1,85.39,31Zm8.63-2.86a2.9,2.9,0,0,0-2.94-2.82,2.94,2.94,0,0,0-3,2.82,2.9,2.9,0,0,0,3,2.77,2.85,2.85,0,0,0,2.94-2.77M61,46.91H57.49C52.33,46.91,50,48.38,50,51c0,2.1,2.22,3.76,5.55,3.76,3.9,0,5.49-1.44,5.49-4.88ZM55.32,58.53c-5.25,0-9.83-2.82-9.83-7.06,0-5.14,4.29-8,12-8H61V42.39c0-3.48-1.88-4.91-6.07-4.91-3.86,0-6.7,1.34-8.19,3.26h-.25v-2c0-2.19,3.09-5.05,8.87-5.05,6.56,0,10,3.18,10,9v7.51c0,4.82-2.8,8.31-10,8.31M42,39.22A6.33,6.33,0,0,0,38,38c-3.42,0-4.72,1.57-4.72,6.66V58.08H31.42a2.47,2.47,0,0,1-2.51-2.72v-11c0-6.62,3.47-10.15,8.49-10.15,3.51,0,4.81,1.43,4.81,3v2ZM17.83,44.9c0,3.62-2.46,6.3-6.6,6.3s-6.8-1.88-6.8-6.66a6.91,6.91,0,0,1,7.18-7c4.15,0,6.22,2.24,6.22,7.38m4.24,5.54V43.87c0-6.8-4-10.15-9.78-10.15C3.9,33.72,0,39.49,0,45.39s4.67,9.52,10.7,9.52a7.41,7.41,0,0,0,7.13-4.34v1.21c0,1.16.24,2.41.24,3.08,0,4.61-3.28,6.8-7.47,6.8s-6.46-1-8.24-2.59H2v1.65c0,2.86,4,4.78,8.05,4.78,6.75,0,12.19-3.44,12.19-10.86,0-.89-.19-3.08-.19-4.2" style="fill:#006b9e"/><path d="M191.14,69.23h-2.38l1.21-2.9Zm2.11,2.15-2.84-6.52h-.94l-2.83,6.52h1.24l.54-1.31h3.05l.53,1.31Zm-7.79-5.63v-.89H180v.89h2.13v5.63h1.17V65.75Zm-8.17,5.63V64.86h-1.17v4.58l-3.57-4.58h-1.08v6.52h1.18V66.79l3.57,4.59Zm-8.83,0v-.89h-3.77v-2h3.21v-.88h-3.21v-1.9h3.77v-.89h-4.94v6.52Zm-9.24-4.61c0,.64-.53,1-1.31,1h-1.74v-2h1.74c.78,0,1.31.38,1.31,1m1.41,4.61-1.78-2.88a1.8,1.8,0,0,0,1.54-1.74c0-1.1-.93-1.9-2.4-1.9h-3v6.52h1.17V68.63h1.47l1.62,2.75ZM151,66.84c0,.68-.55,1.08-1.37,1.08h-1.69V65.75h1.69c.82,0,1.37.4,1.37,1.09m1.17,0c0-1.14-1-2-2.47-2h-2.93v6.52h1.17V68.82h1.76c1.51,0,2.47-.85,2.47-2m-8.82,4.54V64.86h-1.17L140,68.92l-2.25-4.06h-1.18v6.52h1.18V67l1.82,3.18h.87L142.17,67v4.36Zm-10.25-6.52h-1.17v6.52h1.17Z" style="fill:#006b9e"/></g></g></svg>